<mxfile host="app.diagrams.net" modified="2023-11-07T22:31:21.302Z" agent="Mozilla/5.0 (Macintosh; Intel Mac OS X 10_15_7) AppleWebKit/605.1.15 (KHTML, like Gecko) Version/16.1 Safari/605.1.15" version="22.0.8" etag="CmiOyOAe3G2jUhTTIYAm" type="github">
  <diagram name="Seite-1" id="MlfjojUi9_dsHEAg9MV7">
    <mxGraphModel>
      <root>
        <mxCell id="0" />
        <mxCell id="1" parent="0" />
      </root>
    </mxGraphModel>
  </diagram>
</mxfile>
